<svg width="201" height="54" viewBox="0 0 201 54" fill="none" xmlns="http://www.w3.org/2000/svg">
<g clip-path="url(#clip0_6_250)">
<path d="M64.5 6.23837C61.0473 6.23837 58.2384 9.04783 58.2384 12.5006C58.2384 15.9533 61.0473 18.7627 64.5 18.7627C67.9522 18.7627 70.7616 15.9538 70.7616 12.5006C70.7616 9.04727 67.9522 6.23837 64.5 6.23837Z" fill="#2194FF"/>
<path d="M64.5 4.3977C63.8252 4.3977 63.2782 3.85075 63.2782 3.17648V1.22177C63.2782 0.546944 63.8252 0 64.5 0C65.1748 0 65.7218 0.546944 65.7218 1.22177V3.17648C65.7218 3.85075 65.1743 4.3977 64.5 4.3977Z" fill="#2194FF"/>
<path d="M64.5 20.6017C63.8252 20.6017 63.2782 21.1487 63.2782 21.8235V23.7777C63.2782 24.4531 63.8252 25 64.5 25C65.1748 25 65.7218 24.4531 65.7218 23.7777V21.8235C65.7218 21.1487 65.1743 20.6017 64.5 20.6017Z" fill="#2194FF"/>
<path d="M70.2285 6.77092C69.7519 6.29373 69.7519 5.52037 70.2285 5.04318L71.6108 3.66087C72.0875 3.18423 72.8614 3.18423 73.3386 3.66087C73.8158 4.13806 73.8158 4.91198 73.3386 5.38862L71.9563 6.77092C71.4796 7.24811 70.7063 7.24811 70.2285 6.77092Z" fill="#2194FF"/>
<path d="M58.7709 18.2296C58.2937 17.7519 57.5204 17.7519 57.0432 18.2296L55.6609 19.6114C55.1842 20.088 55.1837 20.8625 55.6609 21.3391C56.1381 21.8158 56.912 21.8158 57.3886 21.3391L58.7709 19.9563C59.2481 19.4796 59.2481 18.7057 58.7709 18.2296Z" fill="#2194FF"/>
<path d="M72.6017 12.5C72.6017 11.8252 73.1487 11.2782 73.8235 11.2782H75.7782C76.4531 11.2782 77 11.8252 77 12.5C77 13.1748 76.4531 13.7212 75.7782 13.7212H73.8235C73.1487 13.7212 72.6017 13.1748 72.6017 12.5Z" fill="#2194FF"/>
<path d="M56.3977 12.5C56.3977 11.8252 55.8508 11.2782 55.1759 11.2782H53.2218C52.5469 11.2782 52 11.8252 52 12.5C52 13.1748 52.5469 13.7212 53.2218 13.7212H55.1765C55.8508 13.7212 56.3977 13.1748 56.3977 12.5Z" fill="#2194FF"/>
<path d="M70.2285 18.2296C70.7057 17.753 71.4796 17.753 71.9563 18.2296L73.3386 19.6119C73.8158 20.088 73.8158 20.8625 73.3386 21.3391C72.8614 21.8158 72.088 21.8158 71.6108 21.3391L70.2285 19.9568C69.7513 19.4796 69.7513 18.7063 70.2285 18.2296Z" fill="#2194FF"/>
<path d="M58.7709 6.77092C59.2481 6.29373 59.2481 5.52037 58.7709 5.04318L57.3886 3.66142C56.9114 3.18423 56.1381 3.18423 55.6609 3.66142C55.1837 4.13806 55.1837 4.91198 55.6609 5.38861L57.0432 6.77092C57.5204 7.24867 58.2937 7.24867 58.7709 6.77092Z" fill="#2194FF"/>
</g>
<g opacity="0.4" clip-path="url(#clip1_6_250)">
<path d="M19.5133 14.4491C19.3087 14.398 19.1041 14.4491 18.9251 14.5771C18.2602 15.1399 17.4929 15.6004 16.649 15.9074C15.8562 16.2144 14.9866 16.3679 14.066 16.3679C11.9944 16.3679 10.1019 15.5237 8.74647 14.1677C7.39102 12.8118 6.54706 10.9186 6.54706 8.84633C6.54706 7.97649 6.70051 7.13223 6.95625 6.36472C7.23757 5.54604 7.64677 4.80412 8.18383 4.16453C8.414 3.88311 8.36285 3.47377 8.08153 3.24352C7.90251 3.1156 7.69791 3.06443 7.49332 3.1156C5.31949 3.70402 3.42698 5.00879 2.07153 6.74847C0.767234 8.46257 0 10.586 0 12.8885C0 15.6772 1.12528 18.2099 2.96664 20.0519C4.808 21.894 7.3143 23.0196 10.1275 23.0196C12.4803 23.0196 14.6542 22.201 16.3932 20.845C18.1579 19.4635 19.4366 17.4936 19.9737 15.2422C20.076 14.8841 19.8714 14.5259 19.5133 14.4491Z" fill="#F1F1F1"/>
</g>
<g clip-path="url(#clip2_6_250)">
<path d="M28.9617 10.877C29.0272 10.8664 29.0934 10.8614 29.1597 10.8623L40.4474 10.8623L40.2013 10.7478C39.9607 10.634 39.7418 10.479 39.5545 10.2899L36.3891 7.12456C35.9722 6.72661 35.9022 6.08642 36.2231 5.60771C36.5967 5.0976 37.313 4.98684 37.8231 5.36037C37.8643 5.39056 37.9035 5.42348 37.9403 5.45889L43.6643 11.1829C44.1116 11.6297 44.112 12.3545 43.6652 12.8018C43.6649 12.8021 43.6646 12.8024 43.6643 12.8027L37.9403 18.5267C37.4926 18.9731 36.7678 18.9721 36.3213 18.5244C36.2862 18.4892 36.2534 18.4517 36.2231 18.4122C35.9022 17.9335 35.9722 17.2933 36.3891 16.8954L39.5487 13.7243C39.7167 13.5561 39.9098 13.4152 40.1211 13.3064L40.4646 13.1519L29.2227 13.1519C28.6379 13.1736 28.1248 12.7651 28.015 12.1903C27.9138 11.5662 28.3376 10.9782 28.9617 10.877Z" fill="#2194FF"/>
</g>
<path d="M1.60938 37.5781H4.74219C6.15365 37.5781 7.1849 37.7995 7.83594 38.2422C8.49219 38.6849 8.82031 39.3906 8.82031 40.3594C8.82031 40.7969 8.73438 41.1953 8.5625 41.5547C8.39583 41.9141 8.14583 42.2161 7.8125 42.4609C7.48438 42.7005 7.07812 42.8646 6.59375 42.9531V43.0078C7.17188 43.0964 7.64844 43.2578 8.02344 43.4922C8.40365 43.7214 8.6849 44.026 8.86719 44.4062C9.05469 44.7812 9.14844 45.2292 9.14844 45.75C9.14844 46.5 8.97656 47.1146 8.63281 47.5938C8.29427 48.0729 7.82292 48.4271 7.21875 48.6562C6.61458 48.8854 5.91667 49 5.125 49H1.60938V37.5781ZM2.41406 42.6562H4.94531C6.01823 42.6562 6.79427 42.4688 7.27344 42.0938C7.7526 41.7188 7.99219 41.1641 7.99219 40.4297C7.99219 39.6693 7.73438 39.1224 7.21875 38.7891C6.70312 38.4557 5.8776 38.2891 4.74219 38.2891H2.41406V42.6562ZM2.41406 43.3594V48.2891H5.10156C6.15885 48.2891 6.95573 48.0755 7.49219 47.6484C8.02865 47.2161 8.29688 46.5729 8.29688 45.7188C8.29688 45.1562 8.17188 44.7031 7.92188 44.3594C7.67188 44.0104 7.29688 43.7578 6.79688 43.6016C6.30208 43.4401 5.6849 43.3594 4.94531 43.3594H2.41406ZM21.4844 49H20.6953V41.1953H17.7266C17.6276 42.5339 17.5104 43.7005 17.375 44.6953C17.2396 45.6849 17.0651 46.5052 16.8516 47.1562C16.638 47.8021 16.3724 48.2839 16.0547 48.6016C15.737 48.9193 15.3438 49.0781 14.875 49.0781C14.7396 49.0781 14.6198 49.0703 14.5156 49.0547C14.4115 49.0443 14.3281 49.0286 14.2656 49.0078V48.3672C14.3281 48.3828 14.3984 48.3958 14.4766 48.4062C14.5547 48.4115 14.651 48.4141 14.7656 48.4141C15.0312 48.4141 15.2682 48.3151 15.4766 48.1172C15.6849 47.9141 15.8698 47.6068 16.0312 47.1953C16.1979 46.7839 16.3411 46.2656 16.4609 45.6406C16.5807 45.0104 16.6849 44.2682 16.7734 43.4141C16.8672 42.5599 16.9505 41.5911 17.0234 40.5078H21.4844V49ZM34.75 44.7422C34.75 45.6016 34.6198 46.3646 34.3594 47.0312C34.1042 47.6979 33.7188 48.2188 33.2031 48.5938C32.6875 48.9688 32.0391 49.1562 31.2578 49.1562C30.5234 49.1562 29.9036 48.9818 29.3984 48.6328C28.8984 48.2786 28.5156 47.7839 28.25 47.1484C27.9844 46.513 27.8411 45.7682 27.8203 44.9141H25.0938V49H24.3047V40.5078H25.0938V44.2188H27.8281C27.875 43.5 28.0286 42.849 28.2891 42.2656C28.5547 41.6771 28.9375 41.2109 29.4375 40.8672C29.9375 40.5182 30.5599 40.3438 31.3047 40.3438C32.0964 40.3438 32.7448 40.5365 33.25 40.9219C33.7604 41.3073 34.138 41.8333 34.3828 42.5C34.6276 43.1615 34.75 43.9089 34.75 44.7422ZM28.6328 44.7422C28.6328 45.4505 28.7214 46.0885 28.8984 46.6562C29.0755 47.2188 29.3568 47.6615 29.7422 47.9844C30.1328 48.3073 30.6432 48.4688 31.2734 48.4688C31.8932 48.4688 32.3984 48.3125 32.7891 48C33.1849 47.6875 33.474 47.25 33.6562 46.6875C33.8438 46.125 33.9375 45.4766 33.9375 44.7422C33.9375 44.0234 33.8464 43.3854 33.6641 42.8281C33.4818 42.2708 33.1953 41.8333 32.8047 41.5156C32.4193 41.1979 31.9141 41.0391 31.2891 41.0391C30.6641 41.0391 30.1562 41.1979 29.7656 41.5156C29.375 41.8333 29.0885 42.2734 28.9062 42.8359C28.724 43.3932 28.6328 44.0286 28.6328 44.7422ZM36.6172 43.8984C36.6172 42.8307 36.7005 41.9115 36.8672 41.1406C37.0391 40.3698 37.2917 39.7344 37.625 39.2344C37.9635 38.7292 38.3828 38.3464 38.8828 38.0859C39.4401 37.7266 40.1094 37.4505 40.8906 37.2578C41.6771 37.0651 42.5885 36.9089 43.625 36.7891L43.75 37.4922C43.2083 37.5547 42.7057 37.625 42.2422 37.7031C41.7839 37.7812 41.3646 37.8698 40.9844 37.9688C40.6042 38.0625 40.263 38.1693 39.9609 38.2891C39.6641 38.4089 39.4062 38.5443 39.1875 38.6953C38.8438 38.9036 38.5495 39.1979 38.3047 39.5781C38.0599 39.9531 37.8646 40.4167 37.7188 40.9688C37.5729 41.5208 37.4818 42.1667 37.4453 42.9062H37.5078C37.7005 42.5573 37.9505 42.2474 38.2578 41.9766C38.5703 41.7057 38.9297 41.4922 39.3359 41.3359C39.7422 41.1745 40.1875 41.0938 40.6719 41.0938C41.3854 41.0938 41.9844 41.2448 42.4688 41.5469C42.9583 41.8438 43.3281 42.2812 43.5781 42.8594C43.8281 43.4323 43.9531 44.1302 43.9531 44.9531C43.9531 45.7969 43.8177 46.5365 43.5469 47.1719C43.276 47.8021 42.8698 48.2917 42.3281 48.6406C41.7917 48.9844 41.1198 49.1562 40.3125 49.1562C39.6562 49.1562 39.0938 49.0234 38.625 48.7578C38.1562 48.487 37.7734 48.1146 37.4766 47.6406C37.1849 47.1615 36.9688 46.6042 36.8281 45.9688C36.6875 45.3281 36.6172 44.638 36.6172 43.8984ZM40.375 48.4688C41 48.4688 41.5156 48.3307 41.9219 48.0547C42.3281 47.7734 42.6302 47.375 42.8281 46.8594C43.026 46.3385 43.125 45.7214 43.125 45.0078C43.125 43.9505 42.9089 43.151 42.4766 42.6094C42.0443 42.0625 41.4115 41.7891 40.5781 41.7891C40.0938 41.7891 39.6536 41.8776 39.2578 42.0547C38.862 42.2318 38.5104 42.4766 38.2031 42.7891C37.901 43.0964 37.6406 43.4505 37.4219 43.8516C37.4219 44.4297 37.4661 44.9948 37.5547 45.5469C37.6432 46.0938 37.7969 46.5885 38.0156 47.0312C38.2344 47.474 38.5339 47.8255 38.9141 48.0859C39.2995 48.3411 39.7865 48.4688 40.375 48.4688ZM53.3125 44.7422C53.3125 45.3984 53.2318 45.9974 53.0703 46.5391C52.9089 47.0755 52.6693 47.5391 52.3516 47.9297C52.0339 48.3203 51.638 48.6224 51.1641 48.8359C50.6953 49.0495 50.1484 49.1562 49.5234 49.1562C48.9297 49.1562 48.401 49.0521 47.9375 48.8438C47.474 48.6302 47.0807 48.3281 46.7578 47.9375C46.4401 47.5469 46.1979 47.0833 46.0312 46.5469C45.8646 46.0052 45.7812 45.4036 45.7812 44.7422C45.7812 43.8307 45.9323 43.0469 46.2344 42.3906C46.5417 41.7292 46.9792 41.224 47.5469 40.875C48.1198 40.5208 48.8047 40.3438 49.6016 40.3438C50.4245 40.3438 51.1094 40.5312 51.6562 40.9062C52.2083 41.276 52.6224 41.7917 52.8984 42.4531C53.1745 43.1146 53.3125 43.8776 53.3125 44.7422ZM46.5938 44.7422C46.5938 45.487 46.7005 46.138 46.9141 46.6953C47.1276 47.2526 47.4505 47.6875 47.8828 48C48.3203 48.3125 48.8724 48.4688 49.5391 48.4688C50.2214 48.4688 50.7812 48.3125 51.2188 48C51.6562 47.6875 51.9792 47.25 52.1875 46.6875C52.3958 46.125 52.5 45.4766 52.5 44.7422C52.5 44.0286 52.401 43.3932 52.2031 42.8359C52.0052 42.2786 51.6927 41.8411 51.2656 41.5234C50.8385 41.2005 50.2812 41.0391 49.5938 41.0391C48.6094 41.0391 47.862 41.3672 47.3516 42.0234C46.8464 42.6797 46.5938 43.5859 46.5938 44.7422ZM58.875 40.3438C59.599 40.3438 60.2005 40.513 60.6797 40.8516C61.1641 41.1901 61.5234 41.6536 61.7578 42.2422C61.9974 42.8307 62.1172 43.5052 62.1172 44.2656V44.8359H55.9844C55.9844 46.0026 56.2526 46.8984 56.7891 47.5234C57.3307 48.1484 58.1042 48.4609 59.1094 48.4609C59.6354 48.4609 60.0911 48.4193 60.4766 48.3359C60.8672 48.2474 61.2995 48.099 61.7734 47.8906V48.6172C61.3568 48.8047 60.9401 48.9401 60.5234 49.0234C60.1068 49.112 59.6276 49.1562 59.0859 49.1562C58.2266 49.1562 57.5052 48.9792 56.9219 48.625C56.3438 48.2656 55.9062 47.7604 55.6094 47.1094C55.3177 46.4583 55.1719 45.6979 55.1719 44.8281C55.1719 43.9792 55.3125 43.2161 55.5938 42.5391C55.8802 41.862 56.2969 41.3281 56.8438 40.9375C57.3958 40.5417 58.0729 40.3438 58.875 40.3438ZM58.8672 41.0234C58.0547 41.0234 57.3958 41.2943 56.8906 41.8359C56.3906 42.3724 56.0964 43.1484 56.0078 44.1641H61.2969C61.2969 43.5443 61.2083 42.9974 61.0312 42.5234C60.8542 42.0495 60.5859 41.6823 60.2266 41.4219C59.8724 41.1562 59.4193 41.0234 58.8672 41.0234ZM74.9766 42.5781C74.9766 43.1146 74.8359 43.5365 74.5547 43.8438C74.2786 44.151 73.9115 44.3594 73.4531 44.4688V44.5156C74.0104 44.599 74.4583 44.8099 74.7969 45.1484C75.1406 45.4818 75.3125 45.9609 75.3125 46.5859C75.3125 47.0807 75.2031 47.5078 74.9844 47.8672C74.7656 48.2266 74.4297 48.5052 73.9766 48.7031C73.5286 48.901 72.9531 49 72.25 49H68.6172V40.5078H72.1562C72.7812 40.5078 73.3021 40.5885 73.7188 40.75C74.1354 40.9062 74.4479 41.138 74.6562 41.4453C74.8698 41.7474 74.9766 42.125 74.9766 42.5781ZM74.4922 46.5859C74.4922 45.9766 74.2865 45.5391 73.875 45.2734C73.4635 45.0078 72.8594 44.875 72.0625 44.875H69.4141V48.3281H72.1094C72.9062 48.3281 73.5026 48.1875 73.8984 47.9062C74.2943 47.6198 74.4922 47.1797 74.4922 46.5859ZM74.1719 42.6406C74.1719 42.1927 74.013 41.8411 73.6953 41.5859C73.3776 41.3255 72.8385 41.1953 72.0781 41.1953H69.4141V44.1797H72C72.75 44.1797 73.2995 44.0521 73.6484 43.7969C73.9974 43.5365 74.1719 43.151 74.1719 42.6406ZM81.4375 40.3438C82.5312 40.3438 83.3776 40.7109 83.9766 41.4453C84.5807 42.1797 84.8828 43.263 84.8828 44.6953C84.8828 45.6536 84.7396 46.4661 84.4531 47.1328C84.1667 47.7943 83.7578 48.2969 83.2266 48.6406C82.7005 48.9844 82.0677 49.1562 81.3281 49.1562C80.8177 49.1562 80.3724 49.0807 79.9922 48.9297C79.6172 48.7734 79.3047 48.5651 79.0547 48.3047C78.8047 48.0391 78.612 47.7474 78.4766 47.4297H78.4219C78.4375 47.7266 78.4505 48.0365 78.4609 48.3594C78.4714 48.6823 78.4766 48.987 78.4766 49.2734V52.7578H77.6797V40.5078H78.3359L78.4297 42.2031H78.4766C78.6172 41.8802 78.8151 41.5755 79.0703 41.2891C79.3255 41.0026 79.6484 40.7734 80.0391 40.6016C80.4297 40.4297 80.8958 40.3438 81.4375 40.3438ZM81.3359 41.0391C80.6953 41.0391 80.1615 41.1797 79.7344 41.4609C79.3125 41.737 78.9974 42.1432 78.7891 42.6797C78.5859 43.2109 78.4818 43.862 78.4766 44.6328V44.7656C78.4766 45.5938 78.5781 46.2839 78.7812 46.8359C78.9896 47.3828 79.2995 47.7917 79.7109 48.0625C80.1276 48.3333 80.6432 48.4688 81.2578 48.4688C81.862 48.4688 82.3724 48.3203 82.7891 48.0234C83.2057 47.7266 83.5234 47.2969 83.7422 46.7344C83.9609 46.1719 84.0703 45.4896 84.0703 44.6875C84.0703 43.4948 83.8411 42.5885 83.3828 41.9688C82.9297 41.349 82.2474 41.0391 81.3359 41.0391ZM90.4219 40.3438C91.1458 40.3438 91.7474 40.513 92.2266 40.8516C92.7109 41.1901 93.0703 41.6536 93.3047 42.2422C93.5443 42.8307 93.6641 43.5052 93.6641 44.2656V44.8359H87.5312C87.5312 46.0026 87.7995 46.8984 88.3359 47.5234C88.8776 48.1484 89.651 48.4609 90.6562 48.4609C91.1823 48.4609 91.638 48.4193 92.0234 48.3359C92.4141 48.2474 92.8464 48.099 93.3203 47.8906V48.6172C92.9036 48.8047 92.487 48.9401 92.0703 49.0234C91.6536 49.112 91.1745 49.1562 90.6328 49.1562C89.7734 49.1562 89.0521 48.9792 88.4688 48.625C87.8906 48.2656 87.4531 47.7604 87.1562 47.1094C86.8646 46.4583 86.7188 45.6979 86.7188 44.8281C86.7188 43.9792 86.8594 43.2161 87.1406 42.5391C87.4271 41.862 87.8438 41.3281 88.3906 40.9375C88.9427 40.5417 89.6198 40.3438 90.4219 40.3438ZM90.4141 41.0234C89.6016 41.0234 88.9427 41.2943 88.4375 41.8359C87.9375 42.3724 87.6432 43.1484 87.5547 44.1641H92.8438C92.8438 43.5443 92.7552 42.9974 92.5781 42.5234C92.401 42.0495 92.1328 41.6823 91.7734 41.4219C91.4193 41.1562 90.9661 41.0234 90.4141 41.0234ZM104.273 40.5078V49H103.539V42.8906C103.539 42.6615 103.542 42.4427 103.547 42.2344C103.557 42.026 103.568 41.8021 103.578 41.5625H103.539L100.461 49H99.7734L96.7188 41.5547H96.6797C96.6901 41.7943 96.6979 42.0208 96.7031 42.2344C96.7083 42.4427 96.7109 42.6771 96.7109 42.9375V49H95.9688V40.5078H97.0547L100.125 48.0078L103.211 40.5078H104.273ZM106.648 49H105.703L108.266 45.3438C107.802 45.2865 107.406 45.1615 107.078 44.9688C106.75 44.776 106.5 44.5156 106.328 44.1875C106.161 43.8594 106.078 43.4609 106.078 42.9922C106.078 42.1589 106.341 41.5365 106.867 41.125C107.398 40.7135 108.083 40.5078 108.922 40.5078H112.43V49H111.641V45.4219H109.094L106.648 49ZM106.852 42.9766C106.852 43.5651 107.034 44.0052 107.398 44.2969C107.763 44.5885 108.312 44.7344 109.047 44.7344H111.641V41.1953H109.008C108.299 41.1953 107.763 41.3542 107.398 41.6719C107.034 41.9844 106.852 42.4193 106.852 42.9766ZM125.234 40.5078V48.3047H126.375V51.875H125.602V49H119.102V51.875H118.336V48.3047H118.906C119.385 47.6432 119.786 46.9062 120.109 46.0938C120.432 45.2812 120.677 44.4062 120.844 43.4688C121.016 42.526 121.107 41.5391 121.117 40.5078H125.234ZM124.461 41.1719H121.836C121.794 42.1042 121.69 42.9974 121.523 43.8516C121.357 44.7005 121.128 45.5 120.836 46.25C120.544 46.9948 120.19 47.6797 119.773 48.3047H124.461V41.1719ZM128.961 40.5078V44.2266H134.312V40.5078H135.102V49H134.312V44.9219H128.961V49H128.164V40.5078H128.961ZM137.789 49H136.844L139.406 45.3438C138.943 45.2865 138.547 45.1615 138.219 44.9688C137.891 44.776 137.641 44.5156 137.469 44.1875C137.302 43.8594 137.219 43.4609 137.219 42.9922C137.219 42.1589 137.482 41.5365 138.008 41.125C138.539 40.7135 139.224 40.5078 140.062 40.5078H143.57V49H142.781V45.4219H140.234L137.789 49ZM137.992 42.9766C137.992 43.5651 138.174 44.0052 138.539 44.2969C138.904 44.5885 139.453 44.7344 140.188 44.7344H142.781V41.1953H140.148C139.44 41.1953 138.904 41.3542 138.539 41.6719C138.174 41.9844 137.992 42.4193 137.992 42.9766ZM151.336 40.5078V46.6094C151.336 46.7292 151.333 46.8516 151.328 46.9766C151.328 47.1016 151.326 47.2292 151.32 47.3594C151.32 47.4896 151.318 47.6172 151.312 47.7422C151.307 47.8672 151.299 47.9896 151.289 48.1094L156.359 40.5078H157.328V49H156.578V42.8438C156.578 42.6875 156.578 42.526 156.578 42.3594C156.583 42.1875 156.589 42.0182 156.594 41.8516C156.599 41.6797 156.604 41.5182 156.609 41.3672L151.516 49H150.57V40.5078H151.336ZM165.133 40.5078V44.2266H170.484V40.5078H171.273V49H170.484V44.9219H165.133V49H164.336V40.5078H165.133ZM181.156 44.7422C181.156 45.3984 181.076 45.9974 180.914 46.5391C180.753 47.0755 180.513 47.5391 180.195 47.9297C179.878 48.3203 179.482 48.6224 179.008 48.8359C178.539 49.0495 177.992 49.1562 177.367 49.1562C176.773 49.1562 176.245 49.0521 175.781 48.8438C175.318 48.6302 174.924 48.3281 174.602 47.9375C174.284 47.5469 174.042 47.0833 173.875 46.5469C173.708 46.0052 173.625 45.4036 173.625 44.7422C173.625 43.8307 173.776 43.0469 174.078 42.3906C174.385 41.7292 174.823 41.224 175.391 40.875C175.964 40.5208 176.648 40.3438 177.445 40.3438C178.268 40.3438 178.953 40.5312 179.5 40.9062C180.052 41.276 180.466 41.7917 180.742 42.4531C181.018 43.1146 181.156 43.8776 181.156 44.7422ZM174.438 44.7422C174.438 45.487 174.544 46.138 174.758 46.6953C174.971 47.2526 175.294 47.6875 175.727 48C176.164 48.3125 176.716 48.4688 177.383 48.4688C178.065 48.4688 178.625 48.3125 179.062 48C179.5 47.6875 179.823 47.25 180.031 46.6875C180.24 46.125 180.344 45.4766 180.344 44.7422C180.344 44.0286 180.245 43.3932 180.047 42.8359C179.849 42.2786 179.536 41.8411 179.109 41.5234C178.682 41.2005 178.125 41.0391 177.438 41.0391C176.453 41.0391 175.706 41.3672 175.195 42.0234C174.69 42.6797 174.438 43.5859 174.438 44.7422ZM184.164 40.5078V43.3594C184.164 44.0729 184.341 44.5938 184.695 44.9219C185.049 45.2448 185.568 45.4062 186.25 45.4062C186.833 45.4062 187.357 45.3151 187.82 45.1328C188.289 44.9505 188.737 44.7057 189.164 44.3984V40.5078H189.953V49H189.164V45.0859C188.701 45.3984 188.234 45.6432 187.766 45.8203C187.302 45.9974 186.755 46.0859 186.125 46.0859C185.224 46.0859 184.539 45.8568 184.07 45.3984C183.607 44.9349 183.375 44.2865 183.375 43.4531V40.5078H184.164ZM193.555 40.5078V46.6094C193.555 46.7292 193.552 46.8516 193.547 46.9766C193.547 47.1016 193.544 47.2292 193.539 47.3594C193.539 47.4896 193.536 47.6172 193.531 47.7422C193.526 47.8672 193.518 47.9896 193.508 48.1094L198.578 40.5078H199.547V49H198.797V42.8438C198.797 42.6875 198.797 42.526 198.797 42.3594C198.802 42.1875 198.807 42.0182 198.812 41.8516C198.818 41.6797 198.823 41.5182 198.828 41.3672L193.734 49H192.789V40.5078H193.555Z" fill="#F1F1F1"/>
<defs>
<clipPath id="clip0_6_250">
<rect width="25" height="25" fill="white" transform="translate(52)"/>
</clipPath>
<clipPath id="clip1_6_250">
<rect width="20" height="20.0071" fill="white" transform="translate(0 3.05428)"/>
</clipPath>
<clipPath id="clip2_6_250">
<rect width="16" height="16" fill="white" transform="matrix(-1 -8.74228e-08 -8.74228e-08 1 44 4)"/>
</clipPath>
</defs>
</svg>
