<svg width="293" height="53" viewBox="0 0 293 53" fill="none" xmlns="http://www.w3.org/2000/svg">
<g opacity="0.4" clip-path="url(#clip0_6_251)">
<path d="M7.93817 4.14382C8.29412 4.14382 8.5827 3.85524 8.5827 3.49929V2.20142C8.5827 1.84546 8.29412 1.55688 7.93817 1.55688C7.58222 1.55688 7.29364 1.84546 7.29364 2.20142V3.49929C7.29364 3.85524 7.58222 4.14382 7.93817 4.14382Z" fill="#F1F1F1"/>
<path d="M2.09091 6.5046L0.966887 5.85564C0.658586 5.67758 0.26439 5.78329 0.0864564 6.09154C-0.0915203 6.39985 0.014097 6.79404 0.322355 6.97198L1.44638 7.62093C1.75395 7.79857 2.14844 7.69402 2.32681 7.38504C2.50478 7.07673 2.39916 6.68254 2.09091 6.5046Z" fill="#F1F1F1"/>
<path d="M1.44637 13.6314L0.32235 14.2803C-0.246556 14.6087 -0.0129782 15.4831 0.645217 15.4831C0.937276 15.4831 1.01105 15.342 2.09086 14.7477C2.39912 14.5697 2.50473 14.1756 2.32676 13.8673C2.14882 13.559 1.75471 13.4533 1.44637 13.6314Z" fill="#F1F1F1"/>
<path d="M14.4299 7.62092L15.5539 6.97197C15.8622 6.79399 15.9678 6.39984 15.7898 6.09154C15.6119 5.78329 15.2177 5.67758 14.9094 5.85564L13.7854 6.5046C13.4771 6.68258 13.3715 7.07673 13.5495 7.38503C13.7283 7.69483 14.1231 7.79813 14.4299 7.62092Z" fill="#F1F1F1"/>
<path d="M6.63545 12.2589C7.11382 9.63717 9.2253 7.62895 11.8611 7.2831C10.9147 6.17338 9.50726 5.4684 7.93813 5.4684C5.09497 5.4684 2.78192 7.78232 2.78192 10.6265C2.78192 11.9849 3.30979 13.2221 4.17084 14.1442C4.76695 13.2691 5.63702 12.6013 6.63545 12.2589Z" fill="#F1F1F1"/>
<path d="M17.1405 11.5418C16.4106 9.73757 14.6417 8.52026 12.6587 8.52026C9.9997 8.52026 7.85337 10.6637 7.82527 13.3068C5.99458 13.5077 4.60205 15.078 4.60205 16.9203C4.60205 18.9249 6.23233 20.5558 8.23618 20.5558C18.3773 20.5452 17.8224 20.5817 17.999 20.5269C20.2518 20.2727 22 18.3614 22 16.0425C22 13.3944 19.7381 11.3383 17.1405 11.5418Z" fill="#F1F1F1"/>
</g>
<path d="M65.9992 10.7115C65.9666 10.6572 65.9206 10.6123 65.8655 10.5811C65.8104 10.5498 65.7482 10.5334 65.6849 10.5333H64.3151C64.2518 10.5334 64.1896 10.5497 64.1345 10.5809C64.0795 10.6121 64.0334 10.6569 64.0008 10.7112L63.3408 11.8112C63.3066 11.8682 63.2886 11.9334 63.2886 11.9998C63.2886 12.0663 63.3066 12.1315 63.3408 12.1885L64.0008 13.2885C64.0334 13.3428 64.0794 13.3877 64.1345 13.419C64.1895 13.4502 64.2518 13.4666 64.3151 13.4667H65.6849C65.7482 13.4667 65.8104 13.4503 65.8655 13.4191C65.9205 13.388 65.9666 13.3431 65.9992 13.2888L66.6592 12.1888C66.6934 12.1319 66.7114 12.0666 66.7114 12.0002C66.7114 11.9337 66.6934 11.8685 66.6592 11.8115L65.9992 10.7115Z" fill="#2194FF"/>
<path d="M73.9038 16.2937L72.4371 15.4478L73.6167 15.0144C73.7936 14.9537 73.942 14.8301 74.0338 14.6671C74.1255 14.5041 74.1541 14.3131 74.1143 14.1303C74.0889 14.0309 74.0429 13.9379 73.9794 13.8573C73.9158 13.7767 73.836 13.7104 73.7452 13.6626C73.6543 13.6148 73.5545 13.5866 73.4521 13.5798C73.3497 13.573 73.247 13.5878 73.1507 13.6232L70.7849 14.4933L68.9274 13.4205L69.5467 12.3729C69.6134 12.26 69.6486 12.1312 69.6486 12C69.6486 11.8688 69.6134 11.7401 69.5467 11.6271L68.9278 10.5795L70.7849 9.50667L73.1507 10.3768C73.2516 10.414 73.3596 10.4285 73.4669 10.4194C73.5741 10.4102 73.678 10.3775 73.7712 10.3236C73.8644 10.2698 73.9446 10.196 74.0061 10.1077C74.0676 10.0194 74.1089 9.91857 74.1271 9.81247C74.1521 9.63793 74.1155 9.46012 74.0235 9.30967C73.9316 9.15922 73.79 9.04554 73.6233 8.98821L72.4382 8.55334L73.9049 7.70597C74.0684 7.61628 74.1933 7.46955 74.2556 7.29375C74.318 7.11794 74.3135 6.92534 74.243 6.75264C74.2011 6.65881 74.14 6.57482 74.0636 6.50612C73.9872 6.43742 73.8972 6.38554 73.7995 6.35384C73.7018 6.32213 73.5985 6.31132 73.4963 6.3221C73.3941 6.33288 73.2953 6.36501 73.2064 6.41641L71.7031 7.28357L71.9168 6.04717C71.9515 5.87155 71.9234 5.68931 71.8374 5.53229C71.7515 5.37526 71.6131 5.25343 71.4464 5.18807C71.3458 5.15246 71.2386 5.13925 71.1323 5.14936C71.026 5.15947 70.9233 5.19266 70.8311 5.24661C70.739 5.30055 70.6598 5.37396 70.599 5.4617C70.5382 5.54943 70.4973 5.64938 70.4791 5.75457L70.0498 8.23837L68.1798 9.31821L67.5949 8.32821C67.5304 8.21843 67.4383 8.12737 67.3279 8.06398C67.2174 8.00058 67.0923 7.96705 66.965 7.96667H65.7334V5.74357L67.64 4.15517C67.7796 4.04379 67.8756 3.88686 67.9112 3.71185C67.9468 3.53683 67.9197 3.35487 67.8347 3.19781C67.7811 3.10554 67.708 3.0261 67.6205 2.96501C67.533 2.90393 67.4332 2.86268 67.3281 2.84414C67.223 2.8256 67.1151 2.83022 67.012 2.85767C66.9089 2.88513 66.813 2.93476 66.7311 3.00311L65.7334 3.83434V2.13924C65.7373 1.96073 65.6784 1.78651 65.5668 1.64708C65.4553 1.50765 65.2982 1.4119 65.1232 1.37657C65.018 1.35863 64.9101 1.3639 64.8071 1.39199C64.704 1.42009 64.6084 1.47034 64.5268 1.53924C64.4453 1.60814 64.3797 1.69401 64.3348 1.79087C64.2899 1.88773 64.2666 1.99323 64.2667 2.10001V3.83434L63.2994 3.02767C63.1648 2.91051 62.9932 2.84444 62.8148 2.84102C62.6363 2.8376 62.4624 2.89706 62.3234 3.00897C62.2422 3.07837 62.1772 3.16466 62.1328 3.2618C62.0885 3.35895 62.0659 3.46461 62.0666 3.5714C62.0673 3.67818 62.0914 3.78352 62.137 3.88005C62.1827 3.97658 62.2489 4.06196 62.3311 4.13024L64.2671 5.74357V7.96667H63.0351C62.9076 7.96668 62.7823 7.99993 62.6715 8.06314C62.5608 8.12634 62.4685 8.21733 62.4037 8.32711L61.8188 9.31711L59.9488 8.23727L59.5268 5.79491C59.4989 5.6101 59.404 5.44199 59.2603 5.32249C59.1166 5.20298 58.9341 5.14041 58.7473 5.14664C58.6448 5.1536 58.5449 5.18202 58.4541 5.23004C58.3633 5.27806 58.2836 5.34462 58.2202 5.4254C58.1568 5.50619 58.111 5.59939 58.0859 5.69899C58.0608 5.79858 58.0569 5.90234 58.0744 6.00354L58.2944 7.28247L56.8278 6.43474C56.6752 6.34197 56.4949 6.30583 56.3184 6.33264C56.1419 6.35946 55.9804 6.44752 55.8623 6.58141C55.7942 6.66357 55.7448 6.75962 55.7176 6.86285C55.6905 6.96608 55.6862 7.07399 55.705 7.17905C55.7239 7.28412 55.7654 7.3838 55.8268 7.47114C55.8882 7.55847 55.9679 7.63136 56.0603 7.68471L57.5637 8.55187L56.3779 8.98784C56.211 9.04517 56.0693 9.15887 55.9772 9.30938C55.8851 9.4599 55.8484 9.6378 55.8733 9.81247C55.8915 9.91857 55.9328 10.0194 55.9943 10.1077C56.0558 10.196 56.136 10.2698 56.2292 10.3236C56.3224 10.3775 56.4263 10.4102 56.5336 10.4194C56.6408 10.4285 56.7488 10.414 56.8498 10.3768L59.2151 9.50667L61.0727 10.5795L60.4534 11.6271C60.3867 11.7401 60.3515 11.8688 60.3515 12C60.3515 12.1312 60.3867 12.26 60.4534 12.3729L61.0723 13.4205L59.2151 14.4933L56.8498 13.6232C56.7534 13.5878 56.6507 13.5729 56.5483 13.5796C56.4459 13.5864 56.346 13.6145 56.2551 13.6623C56.1642 13.71 56.0844 13.7764 56.0208 13.8569C55.9572 13.9375 55.9112 14.0305 55.8858 14.13C55.8459 14.3128 55.8745 14.5038 55.9663 14.6669C56.058 14.8299 56.2064 14.9536 56.3834 15.0144L57.5618 15.4467L56.0985 16.29C55.9324 16.3809 55.806 16.5302 55.7439 16.709C55.6817 16.8878 55.6881 17.0833 55.7619 17.2576C55.8049 17.3497 55.8666 17.4319 55.943 17.4989C56.0195 17.5659 56.109 17.6163 56.2059 17.6468C56.3029 17.6774 56.4051 17.6874 56.5062 17.6764C56.6072 17.6653 56.7049 17.6333 56.7929 17.5825L58.2963 16.7153L58.0818 17.9569C58.0597 18.0643 58.0615 18.1752 58.0871 18.2818C58.1126 18.3885 58.1612 18.4882 58.2294 18.574C58.2977 18.6598 58.3839 18.7296 58.4821 18.7784C58.5802 18.8273 58.6879 18.854 58.7975 18.8567C58.9702 18.8564 59.1372 18.7952 59.2693 18.6839C59.4013 18.5725 59.4897 18.4182 59.5191 18.248L59.9485 15.7642L61.8185 14.6844L62.4033 15.6744C62.4683 15.7839 62.5608 15.8747 62.6716 15.9376C62.7824 16.0006 62.9076 16.0335 63.0351 16.0333H64.2667V18.2564L62.36 19.8467C62.2205 19.9579 62.1246 20.1148 62.0891 20.2897C62.0536 20.4646 62.0809 20.6465 62.1661 20.8033C62.2197 20.8956 62.2928 20.975 62.3803 21.0361C62.4678 21.0972 62.5676 21.1384 62.6727 21.157C62.7778 21.1755 62.8856 21.1709 62.9888 21.1434C63.0919 21.116 63.1878 21.0664 63.2697 20.998L64.2667 20.1657V21.8608C64.2627 22.0393 64.3217 22.2135 64.4332 22.3529C64.5448 22.4924 64.7018 22.5881 64.8768 22.6234C64.9821 22.6414 65.09 22.6361 65.193 22.608C65.296 22.5799 65.3916 22.5297 65.4732 22.4608C65.5548 22.3919 65.6203 22.306 65.6653 22.2091C65.7102 22.1123 65.7334 22.0068 65.7334 21.9V20.1657L66.7307 20.9969C66.8144 21.0667 66.9126 21.117 67.0181 21.1442C67.1237 21.1713 67.234 21.1745 67.3409 21.1537C67.4479 21.1328 67.5489 21.0884 67.6365 21.0236C67.7242 20.9588 67.7962 20.8753 67.8476 20.7791C67.9255 20.6241 67.9477 20.4471 67.9106 20.2777C67.8735 20.1082 67.7793 19.9567 67.6437 19.8485L65.7334 18.2564V16.0333H66.965C67.0925 16.0333 67.2178 16.0001 67.3285 15.9369C67.4392 15.8737 67.5316 15.7827 67.5964 15.6729L68.1812 14.6829L70.0512 15.7627L70.4806 18.2465C70.5099 18.4167 70.5984 18.5711 70.7304 18.6824C70.8624 18.7938 71.0295 18.855 71.2022 18.8552C71.312 18.8518 71.4198 18.8245 71.518 18.7751C71.6162 18.7257 71.7024 18.6554 71.7705 18.5692C71.8387 18.483 71.8872 18.383 71.9127 18.276C71.9381 18.1691 71.9399 18.058 71.9179 17.9503L71.7045 16.7175L73.2079 17.5847C73.2959 17.6356 73.3935 17.6676 73.4946 17.6788C73.5957 17.6899 73.698 17.6799 73.795 17.6494C73.8919 17.6188 73.9815 17.5685 74.058 17.5015C74.1345 17.4345 74.1962 17.3523 74.2393 17.2602C74.3131 17.0862 74.3196 16.8909 74.2576 16.7123C74.1957 16.5338 74.0695 16.3846 73.9038 16.2937ZM67.288 12.5658L66.628 13.6658C66.53 13.8283 66.3917 13.9629 66.2265 14.0565C66.0613 14.1501 65.8748 14.1995 65.685 14.2H64.3151C64.1252 14.1995 63.9387 14.1501 63.7735 14.0565C63.6084 13.9629 63.4701 13.8283 63.372 13.6658L62.712 12.5658C62.6091 12.395 62.5547 12.1994 62.5547 12C62.5547 11.8006 62.6091 11.605 62.712 11.4342L63.372 10.3342C63.4701 10.1717 63.6084 10.0371 63.7735 9.94352C63.9387 9.84995 64.1252 9.80052 64.3151 9.80001H65.685C65.8748 9.80052 66.0613 9.84995 66.2265 9.94352C66.3917 10.0371 66.53 10.1717 66.628 10.3342L67.288 11.4342C67.391 11.605 67.4453 11.8006 67.4453 12C67.4453 12.1994 67.391 12.395 67.288 12.5658Z" fill="#2194FF"/>
<path d="M1.61719 36.5781H4.75C6.16146 36.5781 7.19792 36.8177 7.85938 37.2969C8.52083 37.776 8.85156 38.5 8.85156 39.4688C8.85156 40.1302 8.64844 40.6823 8.24219 41.125C7.84115 41.5625 7.2526 41.8438 6.47656 41.9688V42.0156C7.38802 42.151 8.05729 42.4401 8.48438 42.8828C8.91667 43.3203 9.13281 43.9323 9.13281 44.7188C9.13281 45.7708 8.78385 46.5807 8.08594 47.1484C7.38802 47.7161 6.39844 48 5.11719 48H1.61719V36.5781ZM2.41406 41.6641H4.92969C6.0026 41.6641 6.78125 41.487 7.26562 41.1328C7.75521 40.7734 8 40.2135 8 39.4531C8 38.6927 7.72396 38.1406 7.17188 37.7969C6.625 37.4531 5.80729 37.2812 4.71875 37.2812H2.41406V41.6641ZM2.41406 42.3672V47.2969H5.10156C7.21615 47.2969 8.27344 46.4375 8.27344 44.7188C8.27344 43.151 7.15885 42.3672 4.92969 42.3672H2.41406ZM12.2266 39.5078V43.2344H17.6172V39.5078H18.3828V48H17.6172V43.9062H12.2266V48H11.4531V39.5078H12.2266ZM24.6641 48.1562C23.4297 48.1562 22.4661 47.776 21.7734 47.0156C21.0859 46.2552 20.7422 45.1901 20.7422 43.8203C20.7422 42.4661 21.0755 41.3828 21.7422 40.5703C22.4089 39.7526 23.3073 39.3438 24.4375 39.3438C25.4375 39.3438 26.2266 39.6927 26.8047 40.3906C27.3828 41.0885 27.6719 42.0365 27.6719 43.2344V43.8594H21.5547C21.5651 45.026 21.8359 45.9167 22.3672 46.5312C22.9036 47.1458 23.6693 47.4531 24.6641 47.4531C25.1484 47.4531 25.5729 47.4193 25.9375 47.3516C26.3073 47.2839 26.7734 47.138 27.3359 46.9141V47.6172C26.8568 47.8255 26.4141 47.9661 26.0078 48.0391C25.6016 48.1172 25.1536 48.1562 24.6641 48.1562ZM24.4375 40.0312C23.6198 40.0312 22.9635 40.3021 22.4688 40.8438C21.974 41.3802 21.6849 42.1562 21.6016 43.1719H26.8516C26.8516 42.1875 26.638 41.4193 26.2109 40.8672C25.7839 40.3099 25.1927 40.0312 24.4375 40.0312ZM35.7734 43.1719C37.3099 43.1719 38.0781 42.6432 38.0781 41.5859C38.0781 41.0807 37.901 40.6953 37.5469 40.4297C37.1927 40.1641 36.6875 40.0312 36.0312 40.0312C35.6146 40.0312 35.2266 40.0807 34.8672 40.1797C34.5078 40.2734 34.1224 40.4115 33.7109 40.5938L33.4219 39.9531C34.3281 39.5469 35.2083 39.3438 36.0625 39.3438C36.9896 39.3438 37.6927 39.5365 38.1719 39.9219C38.651 40.3073 38.8906 40.8411 38.8906 41.5234C38.8906 42.5078 38.3854 43.1354 37.375 43.4062V43.4531C38.0052 43.6094 38.4635 43.8698 38.75 44.2344C39.0365 44.5938 39.1797 45.0547 39.1797 45.6172C39.1797 46.4036 38.8906 47.0234 38.3125 47.4766C37.7396 47.9297 36.9427 48.1562 35.9219 48.1562C35.3698 48.1562 34.8646 48.1042 34.4062 48C33.9531 47.8906 33.5781 47.7474 33.2812 47.5703V46.7969C33.8177 47.0521 34.2812 47.2266 34.6719 47.3203C35.0625 47.4089 35.4792 47.4531 35.9219 47.4531C36.6927 47.4531 37.2917 47.2917 37.7188 46.9688C38.151 46.6406 38.3672 46.1745 38.3672 45.5703C38.3672 44.9818 38.1615 44.5469 37.75 44.2656C37.3385 43.9844 36.7214 43.8438 35.8984 43.8438H34.7188V43.1719H35.7734ZM46.5625 48L46.3672 46.6562H46.3047C45.8776 47.2031 45.4375 47.5911 44.9844 47.8203C44.5365 48.0443 44.0052 48.1562 43.3906 48.1562C42.5573 48.1562 41.9089 47.9427 41.4453 47.5156C40.9818 47.0885 40.75 46.4974 40.75 45.7422C40.75 44.9141 41.0938 44.2708 41.7812 43.8125C42.474 43.3542 43.474 43.112 44.7812 43.0859L46.3984 43.0391V42.4766C46.3984 41.6693 46.2344 41.0599 45.9062 40.6484C45.5781 40.237 45.0495 40.0312 44.3203 40.0312C43.5339 40.0312 42.7188 40.25 41.875 40.6875L41.5859 40.0156C42.5182 39.5781 43.4401 39.3594 44.3516 39.3594C45.2839 39.3594 45.9792 39.6016 46.4375 40.0859C46.901 40.5703 47.1328 41.3255 47.1328 42.3516V48H46.5625ZM43.4375 47.4531C44.3438 47.4531 45.0573 47.1953 45.5781 46.6797C46.1042 46.1589 46.3672 45.4375 46.3672 44.5156V43.6797L44.8828 43.7422C43.6901 43.7995 42.8385 43.987 42.3281 44.3047C41.8229 44.6172 41.5703 45.1068 41.5703 45.7734C41.5703 46.3047 41.7318 46.7188 42.0547 47.0156C42.3828 47.3073 42.8438 47.4531 43.4375 47.4531ZM56.4062 41.5547C56.4062 42.0911 56.2734 42.513 56.0078 42.8203C55.7422 43.1224 55.3099 43.3333 54.7109 43.4531V43.5078C55.3932 43.5859 55.8854 43.7839 56.1875 44.1016C56.4948 44.4141 56.6484 44.8646 56.6484 45.4531C56.6484 46.2708 56.3776 46.901 55.8359 47.3438C55.2995 47.7812 54.513 48 53.4766 48H49.8906V39.5078H53.4922C54.4609 39.5078 55.1875 39.6823 55.6719 40.0312C56.1615 40.3802 56.4062 40.888 56.4062 41.5547ZM55.8281 45.4375C55.8281 44.3958 55.0286 43.875 53.4297 43.875H50.6641V47.2656H53.5391C55.0651 47.2656 55.8281 46.6562 55.8281 45.4375ZM55.5859 41.6172C55.5859 41.1224 55.4089 40.7708 55.0547 40.5625C54.7005 40.349 54.1693 40.2422 53.4609 40.2422H50.6641V43.1484H53.3672C54.1589 43.1484 54.7266 43.026 55.0703 42.7812C55.4141 42.5365 55.5859 42.1484 55.5859 41.6172ZM59.6875 39.5078V45.6484L59.6406 47.25L64.6797 39.5078H65.7109V48H64.9688V41.8984L65 40.2578L59.9609 48H58.9531V39.5078H59.6875ZM71.9531 48.1562C70.7396 48.1562 69.7891 47.7734 69.1016 47.0078C68.4141 46.2422 68.0703 45.1745 68.0703 43.8047C68.0703 42.3984 68.4271 41.3047 69.1406 40.5234C69.8542 39.737 70.8307 39.3438 72.0703 39.3438C72.8047 39.3438 73.5078 39.4714 74.1797 39.7266L73.9688 40.4141C73.2344 40.1693 72.5964 40.0469 72.0547 40.0469C71.013 40.0469 70.224 40.3698 69.6875 41.0156C69.151 41.6562 68.8828 42.5807 68.8828 43.7891C68.8828 44.9349 69.151 45.8333 69.6875 46.4844C70.224 47.1302 70.974 47.4531 71.9375 47.4531C72.7083 47.4531 73.4245 47.3151 74.0859 47.0391V47.7578C73.5443 48.0234 72.8333 48.1562 71.9531 48.1562ZM76.9062 39.5078V45.6484L76.8594 47.25L81.8984 39.5078H82.9297V48H82.1875V41.8984L82.2188 40.2578L77.1797 48H76.1719V39.5078H76.9062ZM89.7344 47.1719L90.2188 45.8047L92.6641 39.5078H93.7344V48H93V40.4453C92.8854 40.7734 92.763 41.1094 92.6328 41.4531C92.5078 41.7969 91.6589 43.9792 90.0859 48H89.3984L87.0469 42.0312C86.9479 41.7917 86.8542 41.5391 86.7656 41.2734C86.6823 41.0078 86.5885 40.7214 86.4844 40.4141V48H85.7812V39.5078H86.8047L89.2578 45.7578C89.4505 46.263 89.6094 46.7344 89.7344 47.1719ZM103.602 43.7422C103.602 45.1276 103.266 46.2109 102.594 46.9922C101.922 47.7682 100.995 48.1562 99.8125 48.1562C99.0677 48.1562 98.4115 47.9766 97.8438 47.6172C97.276 47.2578 96.8411 46.7422 96.5391 46.0703C96.237 45.3984 96.0859 44.6224 96.0859 43.7422C96.0859 42.3568 96.4219 41.2786 97.0938 40.5078C97.7656 39.7318 98.6875 39.3438 99.8594 39.3438C101.026 39.3438 101.94 39.737 102.602 40.5234C103.268 41.3047 103.602 42.3776 103.602 43.7422ZM96.8984 43.7422C96.8984 44.9089 97.1536 45.8203 97.6641 46.4766C98.1797 47.1276 98.9062 47.4531 99.8438 47.4531C100.781 47.4531 101.505 47.1276 102.016 46.4766C102.531 45.8203 102.789 44.9089 102.789 43.7422C102.789 42.5703 102.529 41.6615 102.008 41.0156C101.492 40.3698 100.766 40.0469 99.8281 40.0469C98.8906 40.0469 98.1667 40.3698 97.6562 41.0156C97.151 41.6562 96.8984 42.5651 96.8984 43.7422ZM109.344 48.1562C108.13 48.1562 107.18 47.7734 106.492 47.0078C105.805 46.2422 105.461 45.1745 105.461 43.8047C105.461 42.3984 105.818 41.3047 106.531 40.5234C107.245 39.737 108.221 39.3438 109.461 39.3438C110.195 39.3438 110.898 39.4714 111.57 39.7266L111.359 40.4141C110.625 40.1693 109.987 40.0469 109.445 40.0469C108.404 40.0469 107.615 40.3698 107.078 41.0156C106.542 41.6562 106.273 42.5807 106.273 43.7891C106.273 44.9349 106.542 45.8333 107.078 46.4844C107.615 47.1302 108.365 47.4531 109.328 47.4531C110.099 47.4531 110.815 47.3151 111.477 47.0391V47.7578C110.935 48.0234 110.224 48.1562 109.344 48.1562ZM118.953 40.1797H116.125V48H115.359V40.1797H112.461V39.5078H118.953V40.1797ZM121.438 39.5078V45.6484L121.391 47.25L126.43 39.5078H127.461V48H126.719V41.8984L126.75 40.2578L121.711 48H120.703V39.5078H121.438ZM141.492 43.7422C141.492 45.1276 141.156 46.2109 140.484 46.9922C139.812 47.7682 138.885 48.1562 137.703 48.1562C136.958 48.1562 136.302 47.9766 135.734 47.6172C135.167 47.2578 134.732 46.7422 134.43 46.0703C134.128 45.3984 133.977 44.6224 133.977 43.7422C133.977 42.3568 134.312 41.2786 134.984 40.5078C135.656 39.7318 136.578 39.3438 137.75 39.3438C138.917 39.3438 139.831 39.737 140.492 40.5234C141.159 41.3047 141.492 42.3776 141.492 43.7422ZM134.789 43.7422C134.789 44.9089 135.044 45.8203 135.555 46.4766C136.07 47.1276 136.797 47.4531 137.734 47.4531C138.672 47.4531 139.396 47.1276 139.906 46.4766C140.422 45.8203 140.68 44.9089 140.68 43.7422C140.68 42.5703 140.419 41.6615 139.898 41.0156C139.383 40.3698 138.656 40.0469 137.719 40.0469C136.781 40.0469 136.057 40.3698 135.547 41.0156C135.042 41.6562 134.789 42.5651 134.789 43.7422ZM149.234 40.1797H146.406V48H145.641V40.1797H142.742V39.5078H149.234V40.1797ZM155.914 48H155.141V39.5078H161.914V48H161.141V40.2422H155.914V48ZM171.789 43.7422C171.789 45.1276 171.453 46.2109 170.781 46.9922C170.109 47.7682 169.182 48.1562 168 48.1562C167.255 48.1562 166.599 47.9766 166.031 47.6172C165.464 47.2578 165.029 46.7422 164.727 46.0703C164.424 45.3984 164.273 44.6224 164.273 43.7422C164.273 42.3568 164.609 41.2786 165.281 40.5078C165.953 39.7318 166.875 39.3438 168.047 39.3438C169.214 39.3438 170.128 39.737 170.789 40.5234C171.456 41.3047 171.789 42.3776 171.789 43.7422ZM165.086 43.7422C165.086 44.9089 165.341 45.8203 165.852 46.4766C166.367 47.1276 167.094 47.4531 168.031 47.4531C168.969 47.4531 169.693 47.1276 170.203 46.4766C170.719 45.8203 170.977 44.9089 170.977 43.7422C170.977 42.5703 170.716 41.6615 170.195 41.0156C169.68 40.3698 168.953 40.0469 168.016 40.0469C167.078 40.0469 166.354 40.3698 165.844 41.0156C165.339 41.6562 165.086 42.5651 165.086 43.7422ZM179.133 40.1797H174.914V48H174.141V39.5078H179.133V40.1797ZM187.898 43.7422C187.898 45.1276 187.562 46.2109 186.891 46.9922C186.219 47.7682 185.292 48.1562 184.109 48.1562C183.365 48.1562 182.708 47.9766 182.141 47.6172C181.573 47.2578 181.138 46.7422 180.836 46.0703C180.534 45.3984 180.383 44.6224 180.383 43.7422C180.383 42.3568 180.719 41.2786 181.391 40.5078C182.062 39.7318 182.984 39.3438 184.156 39.3438C185.323 39.3438 186.237 39.737 186.898 40.5234C187.565 41.3047 187.898 42.3776 187.898 43.7422ZM181.195 43.7422C181.195 44.9089 181.451 45.8203 181.961 46.4766C182.477 47.1276 183.203 47.4531 184.141 47.4531C185.078 47.4531 185.802 47.1276 186.312 46.4766C186.828 45.8203 187.086 44.9089 187.086 43.7422C187.086 42.5703 186.826 41.6615 186.305 41.0156C185.789 40.3698 185.062 40.0469 184.125 40.0469C183.188 40.0469 182.464 40.3698 181.953 41.0156C181.448 41.6562 181.195 42.5651 181.195 43.7422ZM197.18 50.8828H196.414V48H189.914V50.8828H189.148V47.2656H189.711C190.419 46.2708 190.966 45.1172 191.352 43.8047C191.737 42.4922 191.94 41.0599 191.961 39.5078H196.047V47.2656H197.18V50.8828ZM195.273 47.2656V40.2266H192.633C192.508 43.0443 191.826 45.3906 190.586 47.2656H195.273ZM199.758 39.5078V43.2344H205.148V39.5078H205.914V48H205.148V43.9062H199.758V48H198.984V39.5078H199.758ZM209.539 43.0859H212.242C214.237 43.0859 215.234 43.8698 215.234 45.4375C215.234 46.2448 214.956 46.875 214.398 47.3281C213.841 47.776 213.042 48 212 48H208.766V39.5078H209.539V43.0859ZM209.539 43.8203V47.2656H212.125C212.859 47.2656 213.424 47.112 213.82 46.8047C214.216 46.4974 214.414 46.0365 214.414 45.4219C214.414 44.8594 214.24 44.4531 213.891 44.2031C213.542 43.9479 212.938 43.8203 212.078 43.8203H209.539ZM217.484 48H216.719V39.5078H217.484V48ZM222.43 43.6328L219.469 39.5078H220.359L222.891 43.0859L225.398 39.5078H226.25L223.336 43.6328L226.461 48H225.562L222.891 44.2109L220.203 48H219.352L222.43 43.6328ZM231.047 39.5078H231.844L233.641 44.2734C234.188 45.737 234.534 46.724 234.68 47.2344H234.727C234.945 46.5625 235.302 45.5599 235.797 44.2266L237.594 39.5078H238.391L234.586 49.375C234.279 50.1771 234.021 50.7188 233.812 51C233.604 51.2812 233.359 51.4922 233.078 51.6328C232.802 51.7734 232.466 51.8438 232.07 51.8438C231.773 51.8438 231.443 51.7891 231.078 51.6797V51.0078C231.38 51.0911 231.706 51.1328 232.055 51.1328C232.32 51.1328 232.555 51.0703 232.758 50.9453C232.961 50.8203 233.143 50.625 233.305 50.3594C233.471 50.099 233.661 49.6823 233.875 49.1094C234.094 48.5417 234.234 48.1719 234.297 48L231.047 39.5078ZM243.203 48.1562C241.99 48.1562 241.039 47.7734 240.352 47.0078C239.664 46.2422 239.32 45.1745 239.32 43.8047C239.32 42.3984 239.677 41.3047 240.391 40.5234C241.104 39.737 242.081 39.3438 243.32 39.3438C244.055 39.3438 244.758 39.4714 245.43 39.7266L245.219 40.4141C244.484 40.1693 243.846 40.0469 243.305 40.0469C242.263 40.0469 241.474 40.3698 240.938 41.0156C240.401 41.6562 240.133 42.5807 240.133 43.7891C240.133 44.9349 240.401 45.8333 240.938 46.4844C241.474 47.1302 242.224 47.4531 243.188 47.4531C243.958 47.4531 244.674 47.3151 245.336 47.0391V47.7578C244.794 48.0234 244.083 48.1562 243.203 48.1562ZM253.297 48H252.531V40.2266H249.523C249.367 42.2839 249.174 43.8542 248.945 44.9375C248.721 46.0156 248.43 46.8099 248.07 47.3203C247.716 47.8255 247.255 48.0781 246.688 48.0781C246.484 48.0781 246.307 48.0573 246.156 48.0156V47.3125C246.255 47.3438 246.396 47.3594 246.578 47.3594C247.167 47.3594 247.641 46.7396 248 45.5C248.365 44.2552 248.641 42.2578 248.828 39.5078H253.297V48ZM263.164 43.7422C263.164 45.1276 262.828 46.2109 262.156 46.9922C261.484 47.7682 260.557 48.1562 259.375 48.1562C258.63 48.1562 257.974 47.9766 257.406 47.6172C256.839 47.2578 256.404 46.7422 256.102 46.0703C255.799 45.3984 255.648 44.6224 255.648 43.7422C255.648 42.3568 255.984 41.2786 256.656 40.5078C257.328 39.7318 258.25 39.3438 259.422 39.3438C260.589 39.3438 261.503 39.737 262.164 40.5234C262.831 41.3047 263.164 42.3776 263.164 43.7422ZM256.461 43.7422C256.461 44.9089 256.716 45.8203 257.227 46.4766C257.742 47.1276 258.469 47.4531 259.406 47.4531C260.344 47.4531 261.068 47.1276 261.578 46.4766C262.094 45.8203 262.352 44.9089 262.352 43.7422C262.352 42.5703 262.091 41.6615 261.57 41.0156C261.055 40.3698 260.328 40.0469 259.391 40.0469C258.453 40.0469 257.729 40.3698 257.219 41.0156C256.714 41.6562 256.461 42.5651 256.461 43.7422ZM272.031 41.5547C272.031 42.0911 271.898 42.513 271.633 42.8203C271.367 43.1224 270.935 43.3333 270.336 43.4531V43.5078C271.018 43.5859 271.51 43.7839 271.812 44.1016C272.12 44.4141 272.273 44.8646 272.273 45.4531C272.273 46.2708 272.003 46.901 271.461 47.3438C270.924 47.7812 270.138 48 269.102 48H265.516V39.5078H269.117C270.086 39.5078 270.812 39.6823 271.297 40.0312C271.786 40.3802 272.031 40.888 272.031 41.5547ZM271.453 45.4375C271.453 44.3958 270.654 43.875 269.055 43.875H266.289V47.2656H269.164C270.69 47.2656 271.453 46.6562 271.453 45.4375ZM271.211 41.6172C271.211 41.1224 271.034 40.7708 270.68 40.5625C270.326 40.349 269.794 40.2422 269.086 40.2422H266.289V43.1484H268.992C269.784 43.1484 270.352 43.026 270.695 42.7812C271.039 42.5365 271.211 42.1484 271.211 41.6172ZM275.312 39.5078V45.6484L275.266 47.25L280.305 39.5078H281.336V48H280.594V41.8984L280.625 40.2578L275.586 48H274.578V39.5078H275.312ZM284.922 39.5078V45.6484L284.875 47.25L289.914 39.5078H290.945V48H290.203V41.8984L290.234 40.2578L285.195 48H284.188V39.5078H284.922ZM287.57 38.3047C286.794 38.3047 286.203 38.1328 285.797 37.7891C285.391 37.4401 285.154 36.8802 285.086 36.1094H285.773C285.852 36.6823 286.029 37.0885 286.305 37.3281C286.581 37.5625 287.008 37.6797 287.586 37.6797C288.159 37.6797 288.583 37.5573 288.859 37.3125C289.141 37.0677 289.312 36.6667 289.375 36.1094H290.062C289.953 37.5729 289.122 38.3047 287.57 38.3047Z" fill="#F1F1F1"/>
<g clip-path="url(#clip1_6_251)">
<path d="M30.9617 11.877C31.0272 11.8664 31.0934 11.8615 31.1597 11.8623L42.4474 11.8623L42.2013 11.7478C41.9607 11.634 41.7418 11.479 41.5544 11.2899L38.3891 8.12456C37.9722 7.72661 37.9022 7.08642 38.2231 6.60772C38.5966 6.0976 39.3129 5.98685 39.8231 6.36037C39.8643 6.39056 39.9035 6.42348 39.9403 6.45889L45.6642 12.1829C46.1116 12.6297 46.112 13.3545 45.6651 13.8018C45.6649 13.8021 45.6645 13.8024 45.6642 13.8027L39.9403 19.5267C39.4926 19.9731 38.7678 19.9721 38.3213 19.5244C38.2862 19.4892 38.2534 19.4517 38.2231 19.4122C37.9022 18.9335 37.9722 18.2933 38.3891 17.8954L41.5487 14.7243C41.7167 14.5561 41.9098 14.4152 42.1211 14.3064L42.4646 14.1519L31.2227 14.1519C30.6379 14.1736 30.1248 13.7651 30.0149 13.1903C29.9137 12.5662 30.3376 11.9782 30.9617 11.877Z" fill="#2194FF"/>
</g>
<defs>
<clipPath id="clip0_6_251">
<rect width="22" height="22.0079" fill="white" transform="translate(0 0.0535583)"/>
</clipPath>
<clipPath id="clip1_6_251">
<rect width="16" height="16" fill="white" transform="matrix(-1 8.74228e-08 8.74228e-08 1 46 5)"/>
</clipPath>
</defs>
</svg>
